<?xml version="1.0" encoding="utf-8"?>
<!-- Generator: Adobe Illustrator 16.0.0, SVG Export Plug-In . SVG Version: 6.00 Build 0)  -->
<!DOCTYPE svg PUBLIC "-//W3C//DTD SVG 1.1//EN" "http://www.w3.org/Graphics/SVG/1.1/DTD/svg11.dtd">
<svg version="1.1" id="SCSM_Self-Service_Portal" xmlns="http://www.w3.org/2000/svg" xmlns:xlink="http://www.w3.org/1999/xlink"
	 x="0px" y="0px" width="200px" height="200px" viewBox="0 0 200 200" enable-background="new 0 0 200 200" xml:space="preserve">
<path fill="#80539D" d="M100,4.331c52.752,0,95.669,42.917,95.669,95.668S152.752,195.668,100,195.668S4.332,152.751,4.332,100
	S47.248,4.331,100,4.331 M100,0C44.771,0,0,44.772,0,100c0,55.229,44.771,100,100,100s100-44.771,100-100
	C200,44.772,155.229,0,100,0L100,0z"/>
<g>
	<path fill="#80539D" d="M111.849,88.141c0.107,1.053,0.732,2.109,0.732,3.154v0.004l-0.076-0.002l-1.967,1.793l0.271,0.691
		l0.305,0.679l2.621-0.214c0.541,0.947,1.171,1.822,1.882,2.617l-1.034,2.42l0.543,0.518l0.355,0.491l2.101-1.265v-0.002
		c1,0.638,2.226,1.118,3.207,2.118h-0.002l0.041,2.388l0.705,0.127l0.716,0.159l1.597-2.128c1.047,0.23,2.119,0.333,3.207,0.337
		l1.108,2.381l0.745-0.063l0.744-0.091l0.607-2.567c0.523-0.106,1.043-0.246,1.561-0.412c0.518-0.165,1.021-0.356,1.51-0.573
		l1.984,1.731l0.658-0.355l0.642-0.386l-0.487-2.588c0.883-0.635,1.688-1.354,2.406-2.149l2.514,0.776l0.457-0.594l0.43-0.613
		l-1.496-2.168l-0.004,0.002c0.541-0.93,0.986-1.916,1.324-2.942v0.001l2.615-0.313l0.176-0.729l0.143-0.734l-2.248-1.371
		c0.115-1.06,0.123-2.14,0.012-3.226l2.26-1.352l-0.135-0.736l-0.17-0.729l-2.611-0.338l-0.002,0.004l-0.002-0.003
		c-0.334-1.045-0.771-2.032-1.297-2.951l1.516-2.154l-0.425-0.617l-0.448-0.598l-2.523,0.755c-0.723-0.808-1.523-1.532-2.39-2.166
		h0.001l0.508-2.585l-0.638-0.389l-0.587-0.364l-1.928,1.714v0.004c-1-0.441-2.076-0.781-3.133-1.012l-0.621-2.566l-0.76-0.099
		l-0.754-0.064l-1.131,2.38c-1.062-0.006-2.139,0.101-3.211,0.326l-1.583-2.108l-0.717,0.212l-0.71,0.244l-0.061,2.635h0.001
		c-1.005,0.439-1.939,0.978-2.802,1.6l-2.299-1.282l-0.568,0.485l-0.549,0.512l1.015,2.431c-0.727,0.801-1.364,1.675-1.907,2.604
		l0.002-0.005l-2.624-0.23l-0.322,0.675l-0.292,0.688l1.916,1.808h0.001c-0.337,1.018-0.568,2.074-0.687,3.151l-2.49,0.852
		l-0.02,0.748l0.051,0.749L111.849,88.141z M126.312,84.09c1.33-0.426,2.75,0.295,3.172,1.612s-0.314,2.729-1.645,3.155
		c-1.329,0.426-2.75-0.295-3.172-1.612C124.245,85.929,124.982,84.516,126.312,84.09z"/>
	<path fill="#80539D" d="M153.473,41.144H77.912c-2.626,0-4.331,2.54-4.331,5.169V51.9v1.942v9.722c0-0.083,1.65-0.128,2.521-0.128
		c0.517,0,0.479,0.019,1.479,0.049v-7.341h77v70.278c0,1.477-1.656,2.722-3.131,2.722h-38.832c0.545,1,1.017,3,1.422,4h39.433
		c2.63,0,5.108-2.174,5.108-4.802v-74.5V51.9v-5.587C158.581,43.684,156.103,41.144,153.473,41.144z"/>
	<path fill="#80539D" d="M97.581,104.306c0,0.355,0.971,0.838,1.519,0.838h-0.003l0.021,1.528l0.393,0.172l0.398,0.138l0.889-1.155
		c0.581,0.126,1.178,0.196,1.783,0.199l0.616,1.328l0.413-0.031l0.416-0.05l0.338-1.425c0.289-0.063,0.578-0.138,0.867-0.23
		c0.287-0.092,0.566-0.198,0.838-0.317l1.104,0.966l0.365-0.2l0.355-0.215l-0.27-1.438c0.49-0.354,0.938-0.755,1.338-1.195
		l1.399,0.432l0.254-0.331l0.236-0.154l-0.832-1.021h-0.002c0.301-1,0.549-1.25,0.738-1.822l1.453-0.267l0.097-0.452l0.081-0.431
		l-1.25-0.774c0.064-0.587,0.068-1.195,0.006-1.799l1.258-0.755l-0.078-0.411l-0.092-0.407l-1.452-0.186l-0.001,0
		c-0.188-0.583-0.43-1.131-0.723-1.642l0.844-1.197l-0.235-0.343l-0.253-0.332l-1.4,0.418c-0.404-0.448-0.849-0.853-1.329-1.203
		h0.001l0.281-1.438l-0.354-0.218l-0.142-0.199l-0.888,0.953v0.002c-1-0.246-1.34-0.436-1.926-0.565l-0.439-1.427l-0.468-0.055
		l-0.443-0.035l-0.64,1.323c-0.262-0.002-0.533,0.014-0.797,0.037c0.005,0.222,0.014,0.442,0.014,0.665
		c0,5.587-1.744,10.76-4.728,15.009l0.427-0.257V104.306z M102.145,95.987c0.782-0.25,1.618,0.176,1.866,0.95
		c0.248,0.772-0.184,1.605-0.967,1.856c-0.783,0.25-1.618-0.177-1.866-0.949C100.929,97.07,101.362,96.238,102.145,95.987z"/>
	<path fill="#80539D" d="M96.325,89.413c0-11.393-9.231-20.626-20.62-20.626c-11.388,0-20.621,9.233-20.621,20.626
		c0,6.991,3.489,13.16,8.814,16.889c3.34,2.339,7.397,3.724,11.783,3.73c-19.174,0.008-32.723,13.752-34.716,34.87
		c-1.771,18.75,72.361,18.545,69.474,0c-3.186-20.542-15.538-34.862-34.712-34.87c4.39-0.007,8.452-1.396,11.795-3.741
		C92.839,102.561,96.325,96.398,96.325,89.413z"/>
</g>
</svg>
